<svg width="183" height="38" viewBox="0 0 183 38" fill="none" xmlns="http://www.w3.org/2000/svg">
<path fill-rule="evenodd" clip-rule="evenodd" d="M32.6353 1.33359L22.2573 11.7254H5.38204C4.93709 11.7254 4.4199 12.0505 4.22733 12.4505L0.0988525 21.0275C-0.093927 21.428 0.00363719 22.007 0.318571 22.3225L10.123 32.1444L11.7985 33.8216L13.02 35.0461L15.3554 37.3855C15.6694 37.7 16.1778 37.7007 16.4922 37.3857L29.4601 24.3922C29.7739 24.0778 30.0283 23.4623 30.0283 23.0164V17.4549L31.1466 16.31C31.4569 15.9924 31.7084 15.3743 31.7084 14.9295V10.4889L32.6353 9.59794L33.7964 8.43389C34.1106 8.11892 34.3653 7.50328 34.3653 7.06013V1.21178C34.3653 0.322515 33.8556 0.111906 33.2282 0.739971L32.6353 1.33359ZM11.2883 30.9197L27.0144 15.2636L29.9774 12.2777V15.6247L28.8547 16.7601L28.3016 17.3207L28.1061 17.5202L12.9641 32.592L11.2883 30.9197ZM15.8982 35.5173L14.2136 33.8401L28.3403 19.7677L28.3523 19.7534V23.1077L15.8982 35.5173ZM32.7402 7.17136L28.3979 11.5069L27.6246 12.277L26.3255 13.5748L10.2006 29.6668L8.52556 27.9958L23.0658 13.4845L32.7402 3.827V7.17136Z" fill="#EC1115"/>
<path d="M51.6096 14.8944C50.2088 14.8944 49.1221 15.4499 48.301 16.4883C47.6731 15.4499 46.6346 14.8944 45.3788 14.8944C44.1712 14.8944 43.1328 15.4257 42.4807 16.3917V15.788C42.4807 15.4257 42.2875 15.2084 41.9253 15.2084H39.9449C39.5827 15.2084 39.3653 15.4257 39.3653 15.788V26.7281C39.3653 27.0903 39.5827 27.2835 39.9449 27.2835H41.9253C42.2875 27.2835 42.4807 27.0903 42.4807 26.7281V19.8211C42.4807 18.2513 43.4226 17.7683 44.2679 17.7683C45.1131 17.7683 45.8135 18.1789 45.8135 19.3864V26.7281C45.8135 27.0903 46.0308 27.2835 46.3931 27.2835H48.3493C48.7357 27.2835 48.9289 27.0903 48.9289 26.7281V19.8211C48.9289 18.2513 49.8707 17.7683 50.716 17.7683C51.5371 17.7683 52.2616 18.1789 52.2616 19.3864V26.7281C52.2616 27.0903 52.4548 27.2835 52.8412 27.2835H54.7974C55.1597 27.2835 55.377 27.0903 55.377 26.7281V19.1449C55.377 16.3676 53.9038 14.8944 51.6096 14.8944Z" fill="#343541"/>
<path d="M63.7234 27.6216C67.2494 27.6216 70.0991 24.8444 70.0991 21.246C70.0991 17.6717 67.2494 14.8944 63.7234 14.8944C60.1733 14.8944 57.3236 17.6717 57.3236 21.246C57.3236 24.8444 60.1733 27.6216 63.7234 27.6216ZM63.7234 24.5787C61.8638 24.5787 60.439 23.2021 60.439 21.246C60.439 19.2898 61.8638 17.9132 63.7234 17.9132C65.5589 17.9132 66.9837 19.2898 66.9837 21.246C66.9837 23.2021 65.5589 24.5787 63.7234 24.5787Z" fill="#343541"/>
<path d="M78.7631 14.8944C77.2657 14.8944 76.1548 15.4499 75.4786 16.4642V15.788C75.4786 15.4257 75.2854 15.2084 74.899 15.2084H72.9428C72.5806 15.2084 72.3632 15.4257 72.3632 15.788V26.7281C72.3632 27.0903 72.5806 27.2835 72.9428 27.2835H74.899C75.2854 27.2835 75.4786 27.0903 75.4786 26.7281V20.3041C75.4786 18.4928 76.4446 17.7683 77.6521 17.7683C78.7631 17.7683 79.5842 18.4204 79.5842 19.8211V26.7281C79.5842 27.0903 79.7774 27.2835 80.1396 27.2835H82.12C82.4822 27.2835 82.6996 27.0903 82.6996 26.7281V19.5796C82.6996 16.6091 81.0091 14.8944 78.7631 14.8944Z" fill="#343541"/>
<path d="M90.9645 15.2084H89.4672V11.9239C89.4672 11.5617 89.274 11.3443 88.8875 11.3443H86.9314C86.5691 11.3443 86.3518 11.5617 86.3518 11.9239V15.2084H84.8544C84.468 15.2084 84.2748 15.4257 84.2748 15.788V17.6475C84.2748 18.0098 84.468 18.203 84.8544 18.203H86.3518V26.7281C86.3518 27.0903 86.5691 27.2835 86.9314 27.2835H88.8875C89.274 27.2835 89.4672 27.0903 89.4672 26.7281V18.203H90.9645C91.3509 18.203 91.5441 18.0098 91.5441 17.6475V15.788C91.5441 15.4257 91.3509 15.2084 90.9645 15.2084Z" fill="#343541"/>
<path d="M98.8928 14.8944C95.1012 14.8944 92.4929 17.6717 92.4929 21.246C92.4929 24.8685 95.0287 27.6216 98.9652 27.6216C101.429 27.6216 103.409 26.4866 104.327 24.458C104.496 24.0957 104.278 23.83 103.844 23.83H101.912C101.622 23.83 101.429 23.9508 101.211 24.1681C100.728 24.6753 99.9312 25.0376 99.0135 25.0376C97.4679 25.0376 96.1638 24.2647 95.7291 22.5501H101.791H104.278C104.616 22.5501 104.858 22.381 104.882 22.0188C104.906 21.7773 104.93 21.5358 104.93 21.2701C104.93 17.6958 102.467 14.8944 98.8928 14.8944ZM95.7291 20.0867C96.0913 18.5894 97.2264 17.6958 98.8686 17.6958C100.173 17.6958 101.453 18.3721 101.815 20.0867H95.7291Z" fill="#343541"/>
<path d="M118.692 22.8882H116.542C116.204 22.8882 116.011 23.0331 115.842 23.2987C115.335 24.0716 114.417 24.5546 113.33 24.5546C111.471 24.5546 110.046 23.178 110.046 21.246C110.046 19.3381 111.471 17.9615 113.33 17.9615C114.417 17.9615 115.335 18.4204 115.842 19.2173C116.011 19.483 116.228 19.6279 116.542 19.6279H118.692C119.102 19.6279 119.319 19.3622 119.175 18.9758C118.402 16.5608 116.083 14.8944 113.33 14.8944C109.659 14.8944 106.93 17.6717 106.93 21.246C106.93 24.8444 109.659 27.6217 113.33 27.6217C116.083 27.6217 118.402 25.9553 119.175 23.5402C119.319 23.1297 119.102 22.8882 118.692 22.8882Z" fill="#EC1115"/>
<path d="M121.889 13.5178H123.87C124.232 13.5178 124.425 13.3246 124.425 12.9624V10.9579C124.425 10.5956 124.232 10.3783 123.87 10.3783H121.889C121.527 10.3783 121.31 10.5956 121.31 10.9579V12.9624C121.31 13.3246 121.527 13.5178 121.889 13.5178ZM121.889 27.2836H123.87C124.232 27.2836 124.425 27.0904 124.425 26.7281V15.788C124.425 15.4257 124.232 15.2084 123.87 15.2084H121.889C121.527 15.2084 121.31 15.4257 121.31 15.788V26.7281C121.31 27.0904 121.527 27.2836 121.889 27.2836Z" fill="#EC1115"/>
<path d="M133.749 14.8944C132.251 14.8944 131.141 15.4499 130.464 16.4642V15.788C130.464 15.4257 130.271 15.2084 129.885 15.2084H127.929C127.566 15.2084 127.349 15.4257 127.349 15.788V26.7281C127.349 27.0904 127.566 27.2836 127.929 27.2836H129.885C130.271 27.2836 130.464 27.0904 130.464 26.7281V20.3041C130.464 18.4928 131.43 17.7683 132.638 17.7683C133.749 17.7683 134.57 18.4204 134.57 19.8211V26.7281C134.57 27.0904 134.763 27.2836 135.125 27.2836H137.106C137.468 27.2836 137.685 27.0904 137.685 26.7281V19.5796C137.685 16.6091 135.995 14.8944 133.749 14.8944Z" fill="#EC1115"/>
<path d="M146.047 14.8944C142.255 14.8944 139.647 17.6717 139.647 21.246C139.647 24.8685 142.183 27.6217 146.119 27.6217C148.583 27.6217 150.563 26.4866 151.481 24.458C151.65 24.0957 151.432 23.8301 150.998 23.8301H149.066C148.776 23.8301 148.583 23.9508 148.365 24.1682C147.882 24.6753 147.085 25.0376 146.168 25.0376C144.622 25.0376 143.318 24.2648 142.883 22.5501H148.945H151.432C151.77 22.5501 152.012 22.381 152.036 22.0188C152.06 21.7773 152.084 21.5358 152.084 21.2701C152.084 17.6959 149.621 14.8944 146.047 14.8944ZM142.883 20.0867C143.245 18.5894 144.38 17.6959 146.023 17.6959C147.327 17.6959 148.607 18.3721 148.969 20.0867H142.883Z" fill="#EC1115"/>
<path d="M166.506 14.8944C165.106 14.8944 164.019 15.4499 163.198 16.4883C162.57 15.4499 161.531 14.8944 160.276 14.8944C159.068 14.8944 158.03 15.4257 157.377 16.3917V15.788C157.377 15.4257 157.184 15.2084 156.822 15.2084H154.842C154.479 15.2084 154.262 15.4257 154.262 15.788V26.7281C154.262 27.0904 154.479 27.2836 154.842 27.2836H156.822C157.184 27.2836 157.377 27.0904 157.377 26.7281V19.8211C157.377 18.2513 158.319 17.7683 159.165 17.7683C160.01 17.7683 160.71 18.1789 160.71 19.3864V26.7281C160.71 27.0904 160.928 27.2836 161.29 27.2836H163.246C163.632 27.2836 163.826 27.0904 163.826 26.7281V19.8211C163.826 18.2513 164.767 17.7683 165.613 17.7683C166.434 17.7683 167.158 18.1789 167.158 19.3864V26.7281C167.158 27.0904 167.352 27.2836 167.738 27.2836H169.694C170.056 27.2836 170.274 27.0904 170.274 26.7281V19.1449C170.274 16.3676 168.801 14.8944 166.506 14.8944Z" fill="#EC1115"/>
<path d="M177.702 14.8944C175.215 14.8944 173.114 16.2468 172.8 18.7343C172.776 19.1207 173.017 19.3139 173.38 19.3139H175.312C175.65 19.3139 175.77 19.1449 175.915 18.8068C176.109 18.1547 176.785 17.7683 177.702 17.7683C178.838 17.7683 179.562 18.3721 179.562 19.7969V21.1011C178.862 20.4732 177.823 20.0143 176.302 20.0143C174.152 20.0143 172.22 21.2943 172.22 23.8301C172.22 26.3658 174.152 27.6217 176.302 27.6217C177.823 27.6217 178.862 27.0904 179.562 26.2451V26.7281C179.562 27.0904 179.779 27.3077 180.142 27.3077H182.025C182.412 27.3077 182.605 27.0904 182.605 26.7281V19.6279C182.605 16.4883 180.359 14.8944 177.702 14.8944ZM177.34 25.3274C175.988 25.3274 175.336 24.6995 175.336 23.8301C175.336 22.9606 175.988 22.3327 177.34 22.3327C178.717 22.3327 179.562 22.8882 179.562 23.8301C179.562 24.6995 178.717 25.3274 177.34 25.3274Z" fill="#EC1115"/>
</svg>
